<?xml version="1.0" encoding="utf-8"?>
<svg xmlns="http://www.w3.org/2000/svg" viewBox="0 0 500 500" xmlns:bx="https://boxy-svg.com">
  <defs>
    <bx:export>
      <bx:file format="svg" path="Sin título.svg"/>
    </bx:export>
  </defs>
  <g style="" transform="matrix(0.366081, 0, 0, 0.366081, 171.341568, 146.399429)">
    <path fill="rgb(0,0,0)" d="M 8.619 -356.18 C 37.219 -357.98 37.219 -355.78 56.819 -335.68 C 175.119 -360.78 270.209 -359.48 387.229 -331.78 C 401.329 -337.98 409.489 -346.68 427.549 -344.78 C 449.029 -342.48 450.149 -319.58 467.019 -310.08 C 475.039 -305.58 484.249 -303.08 492.629 -299.18 C 508.379 -291.78 524.609 -283.78 539.629 -274.98 C 553.799 -266.68 568.589 -257.78 582.349 -248.88 C 592.349 -242.28 602.079 -232.78 613.019 -227.28 C 626.619 -220.38 644.779 -224.28 656.859 -214.88 C 666.579 -207.38 670.139 -190.08 679.109 -181.08 C 687.189 -173.08 695.989 -165.48 704.189 -157.48 C 719.549 -142.58 733.839 -126.68 746.959 -109.78 C 877.109 53.719 917.369 271.219 854.349 470.369 C 836.499 525.219 800.729 588.809 770.839 638.279 C 746.679 672.179 720.339 709.919 690.549 739.169 C 666.419 762.869 686.019 773.689 664.759 793.359 C 654.289 803.049 631.019 797.009 621.009 803.279 C 593.369 820.579 568.139 840.639 539.579 856.549 C 502.329 879.069 461.259 891.499 427.099 918.189 C 418.279 924.979 415.939 926.159 405.189 929.229 C 380.059 921.789 367.559 925.449 342.099 929.719 C 281.989 939.789 218.819 935.099 158.019 935.179 C 126.719 935.219 94.619 928.359 64.119 922.009 C 42.019 917.399 19.519 909.099 -2.981 907.759 C -9.981 907.459 -27.481 913.969 -35.481 915.819 C -56.381 907.449 -58.081 898.989 -69.181 883.729 C -77.081 872.849 -113.28 854.159 -127.08 845.519 C -144.38 834.599 -161.38 823.189 -178.08 811.329 C -190.68 802.239 -208.78 787.559 -221.98 781.129 C -235.98 774.329 -253.18 783.819 -265.98 765.259 C -276.18 750.509 -269.08 737.019 -278.28 722.659 C -283.68 714.269 -292.68 705.649 -299.38 697.879 C -309.38 686.409 -318.78 674.409 -327.48 661.939 C -409.48 545.499 -452.18 405.869 -449.18 263.419 C -448.58 230.719 -448.18 209.119 -442.48 176.519 C -424.58 71.519 -379.48 -26.981 -311.58 -109.08 C -298.68 -124.38 -285.28 -139.18 -271.28 -153.48 C -264.48 -160.48 -256.88 -168.08 -250.28 -175.28 C -238.58 -188.08 -245.98 -207.48 -230.28 -218.38 C -216.18 -228.08 -197.88 -219.08 -183.88 -225.38 C -173.98 -229.88 -160.58 -239.18 -151.38 -245.28 C -139.48 -253.18 -127.38 -260.58 -115.08 -267.58 C -100.58 -275.78 -85.781 -283.68 -70.881 -291.08 C -54.881 -298.78 -34.781 -307.48 -20.481 -317.58 C -11.381 -334.58 -12.481 -347.98 8.619 -356.18 Z" style="stroke-width: 1;"/>
    <path fill="rgb(253,253,253)" d="M 188.719 4.119 C 230.219 -2.581 368.159 26.219 388.689 64.519 C 377.789 91.719 330.739 132.119 326.869 153.019 C 326.369 155.719 326.629 159.419 328.269 161.619 C 329.289 163.019 330.049 163.519 331.789 163.719 C 345.519 164.919 382.809 114.919 395.319 104.719 C 400.149 100.719 406.429 96.719 412.949 97.619 C 415.779 98.019 417.649 99.519 419.299 101.819 C 427.959 113.619 457.439 227.719 457.489 245.819 C 457.529 256.819 451.059 265.819 449.219 276.519 L 448.989 277.919 C 452.039 287.819 459.909 295.319 461.779 305.619 C 466.489 331.649 447.009 429.439 439.529 459.259 C 438.529 463.269 437.489 467.419 433.739 469.649 C 419.659 468.579 344.419 391.559 338.099 390.039 C 317.499 391.019 336.879 415.749 348.539 429.159 C 367.499 450.949 399.009 474.219 412.829 499.609 C 393.129 523.729 304.479 542.389 273.829 546.369 C 249.649 549.519 225.319 550.949 200.919 550.649 C 185.119 550.849 153.519 547.539 139.319 546.369 C 120.319 544.809 43.019 526.619 34.919 515.199 C 23.019 498.289 102.619 423.989 105.419 403.469 C 105.819 401.749 104.519 400.049 103.519 398.699 C 98.219 391.949 87.819 394.879 82.519 400.419 C 55.719 428.649 36.119 461.379 8.019 488.819 C -8.381 457.939 -37.981 338.949 -37.381 303.019 C -30.981 292.619 -27.881 288.419 -24.681 276.519 C -27.081 267.819 -31.381 260.919 -35.081 252.819 C -44.481 232.119 -9.081 99.919 0.619 73.819 C 2.219 69.619 4.719 61.219 9.419 59.519 C 21.319 55.019 72.219 144.619 89.119 151.619 C 92.019 152.819 95.519 153.419 98.419 152.119 C 100.919 150.919 102.519 148.919 103.319 146.319 C 104.519 142.519 103.719 138.219 101.919 134.719 C 96.219 123.019 86.419 112.219 78.719 101.819 C 64.119 82.119 49.319 62.019 37.519 40.619 C 62.219 19.319 156.019 6.419 188.719 4.119 Z" style="stroke-width: 1;"/>
    <path fill="rgb(0,0,0)" d="M 196.019 168.019 C 212.619 166.719 239.719 167.119 255.199 171.219 C 300.369 183.219 340.289 206.519 372.299 240.619 C 383.059 252.119 391.179 259.319 399.759 273.019 C 394.349 282.219 381.729 295.419 374.209 303.419 C 340.439 339.519 288.019 377.909 236.519 378.699 C 204.919 378.889 174.119 380.269 143.919 368.769 C 108.719 355.349 46.019 308.719 31.119 274.819 C 34.319 266.719 39.419 259.819 45.119 253.219 C 85.119 207.819 134.219 172.619 196.019 168.019 Z" style="stroke-width: 1;"/>
    <path fill="rgb(253,253,253)" d="M 179.119 223.819 C 188.419 223.719 197.619 228.319 201.919 236.719 C 204.719 242.019 205.119 248.219 203.219 253.919 C 200.419 262.119 195.019 266.319 187.619 269.819 C 160.419 269.719 150.419 231.619 179.119 223.819 Z" style="stroke-width: 1;"/>
    <path fill="rgb(253,253,253)" d="M -24.281 58.519 C -23.081 58.919 -23.681 58.719 -22.781 60.119 C -23.581 66.319 -28.881 83.119 -30.881 90.019 C -35.381 105.219 -39.481 120.519 -43.281 135.919 C -48.081 156.819 -52.481 177.719 -56.281 198.719 C -58.281 209.119 -61.881 231.419 -65.781 240.419 C -81.181 253.719 -95.181 253.319 -95.181 279.219 C -95.181 300.819 -67.281 305.119 -63.081 319.719 C -59.881 337.339 -53.181 362.579 -50.481 379.419 C -48.081 394.379 -22.081 480.469 -25.581 487.929 C -37.981 490.239 -103.68 435.729 -117.48 424.399 C -155.28 392.419 -191.18 358.139 -224.88 321.719 C -258.38 285.119 -266.48 282.219 -230.28 242.219 C -182.58 189.519 -133.08 139.019 -76.581 95.619 C -59.581 82.619 -42.981 69.019 -24.281 58.519 Z" style="stroke-width: 1;"/>
    <path fill="rgb(253,253,253)" d="M 446.999 82.919 C 454.439 84.219 471.429 92.419 478.629 96.219 C 531.169 123.919 578.789 160.119 619.579 203.319 C 632.029 216.319 673.429 257.119 672.309 273.719 C 670.469 300.719 576.879 394.979 555.169 413.849 C 533.159 432.969 493.999 465.469 467.809 475.779 C 465.779 456.869 476.329 407.509 479.289 386.029 C 482.399 363.549 486.589 329.809 491.699 308.319 C 511.509 305.719 528.109 286.419 520.409 265.919 C 514.109 249.119 499.599 245.019 484.599 238.419 C 482.279 232.019 480.749 225.819 479.309 219.219 C 470.259 177.919 456.239 137.819 447.329 96.519 C 446.389 92.219 446.699 87.319 446.999 82.919 Z" style="stroke-width: 1;"/>
    <path fill="rgb(253,253,253)" d="M 502.599 664.859 C 504.649 664.649 506.559 664.789 508.619 664.839 C 514.629 668.449 509.909 680.549 507.529 685.829 C 480.839 744.989 449.809 802.149 420.879 860.239 C 400.589 865.639 390.979 868.049 375.689 882.899 C 367.439 878.399 342.269 869.059 332.629 865.169 C 305.759 854.349 278.989 843.269 252.339 831.939 C 239.119 826.089 197.219 809.299 189.919 799.589 C 187.719 785.439 264.149 756.559 277.409 751.029 C 313.109 736.239 348.959 721.789 384.929 707.679 C 407.619 698.749 430.379 689.969 453.189 681.349 C 468.299 675.689 487.189 668.359 502.599 664.859 Z" style="stroke-width: 1;"/>
    <path fill="rgb(253,253,253)" d="M 387.649 542.789 L 388.219 543.289 L 387.879 544.789 C 374.879 558.839 354.469 576.549 339.699 589.979 L 246.809 673.359 C 232.419 686.269 218.219 699.269 204.019 712.379 C 193.819 721.729 178.319 737.239 167.019 743.499 C 154.519 738.149 146.019 738.619 132.619 738.509 C 121.419 726.459 97.819 679.009 88.719 661.529 L 56.919 599.959 C 48.719 583.789 38.219 563.959 32.019 546.999 C 52.819 550.039 88.419 562.269 112.819 567.129 C 207.819 586.089 296.999 576.049 387.649 542.789 Z" style="stroke-width: 1;"/>
    <path fill="rgb(253,253,253)" d="M 710.349 313.519 C 714.539 313.519 718.979 314.319 722.319 317.019 C 734.839 327.219 780.709 439.449 787.809 461.279 C 790.549 469.729 792.289 477.779 792.959 486.629 C 784.559 502.319 783.519 509.269 781.799 526.649 C 772.449 529.519 746.499 542.079 736.089 546.829 L 645.929 587.979 C 627.719 596.069 614.749 601.849 595.869 607.729 C 580.819 597.829 582.689 592.319 588.479 577.359 C 596.269 557.239 604.679 537.509 613.209 517.689 C 630.349 478.029 647.839 438.529 665.689 399.179 C 673.239 382.489 698.579 321.819 710.349 313.519 Z" style="stroke-width: 1;"/>
    <path fill="rgb(253,253,253)" d="M -177.88 -76.281 C -160.98 -77.081 -158.88 -69.781 -164.38 -55.581 C -198.48 33.019 -239.18 119.219 -275.38 206.919 C -279.68 217.219 -286.48 233.219 -293.58 241.419 C -301.88 229.519 -306.08 218.219 -311.48 204.919 C -323.08 175.619 -357.48 87.019 -359.38 58.419 C -354.58 49.119 -344.58 41.619 -345.78 30.119 C -346.48 23.419 -349.18 16.219 -351.18 9.819 C -329.98 -18.081 -213.58 -66.481 -177.88 -76.281 Z" style="stroke-width: 1;"/>
    <path fill="rgb(253,253,253)" d="M 593.049 -73.381 C 594.959 -73.481 597.689 -73.381 599.479 -72.881 C 638.569 -63.581 750.129 -21.581 772.309 9.219 C 771.409 25.119 767.719 31.619 775.879 47.019 C 777.519 50.619 779.469 57.619 778.229 61.319 C 764.509 103.219 747.689 147.519 730.679 188.019 C 724.529 203.419 719.709 215.419 711.549 229.819 C 682.649 174.619 653.269 108.419 627.699 51.419 L 601.019 -8.781 C 594.909 -22.681 583.309 -45.381 582.819 -60.981 C 582.669 -65.781 589.339 -70.481 593.049 -73.381 Z" style="stroke-width: 1;"/>
    <path fill="rgb(253,253,253)" d="M -293.78 319.019 C -288.08 321.619 -275.08 355.969 -271.98 363.599 C -260.18 392.959 -248.58 422.409 -237.28 451.959 L -200.48 546.509 C -195.18 560.019 -173.58 610.839 -175.88 622.599 C -177.68 625.869 -180.48 626.799 -183.88 628.619 C -198.38 622.899 -211.28 616.619 -225.18 609.729 C -270.58 587.079 -307.48 568.719 -349.88 540.329 C -348.58 529.909 -347.18 521.899 -347.38 511.299 C -352.08 504.319 -357.98 500.329 -362.88 491.999 C -357.58 471.069 -304.28 334.249 -293.78 319.019 Z" style="stroke-width: 1;"/>
    <path fill="rgb(253,253,253)" d="M 812.939 59.219 C 820.429 65.519 829.019 92.919 832.019 103.019 C 854.499 179.719 861.369 267.019 854.129 346.639 C 851.379 376.829 838.239 449.379 824.419 475.309 C 811.129 452.069 792.229 403.719 780.609 377.259 C 768.739 351.079 753.689 319.719 744.889 292.919 C 772.759 289.519 796.579 291.819 824.029 289.919 C 828.939 289.619 843.559 287.819 845.599 283.819 C 846.719 281.619 847.399 278.219 846.679 276.419 C 837.509 253.519 765.329 272.719 746.299 258.019 C 741.979 254.719 739.529 251.719 738.779 247.019 C 738.169 243.419 738.979 239.319 740.209 235.919 C 759.379 182.619 780.769 130.019 802.329 77.619 C 805.069 71.019 808.629 64.919 812.939 59.219 Z" style="stroke-width: 1;"/>
    <path fill="rgb(253,253,253)" d="M -387.28 73.219 C -385.18 75.319 -381.48 85.219 -380.28 88.419 C -363.18 137.219 -346.58 186.019 -326.78 233.919 C -323.98 240.819 -320.98 248.619 -319.48 255.919 C -320.58 257.419 -322.28 258.519 -323.08 260.119 C -330.18 274.319 -403.98 271.319 -405.88 271.219 C -407.18 271.619 -412.08 271.319 -414.68 276.019 C -416.68 279.519 -412.38 288.419 -410.68 288.719 C -405.28 296.319 -367.68 289.619 -346.28 290.919 C -333.68 291.619 -327.18 293.519 -319.18 302.919 C -322.38 320.519 -343.58 370.639 -351.48 390.369 C -363.38 419.739 -376.28 451.339 -389.88 479.839 C -392.28 475.059 -394.38 469.889 -396.08 464.809 C -432.38 351.649 -433.58 228.719 -401.58 114.419 C -397.48 99.919 -393.88 86.719 -387.28 73.219 Z" style="stroke-width: 1;"/>
    <path fill="rgb(253,253,253)" d="M 55.819 -300.68 C 76.419 -297.98 179.719 -249.88 202.519 -237.58 C 206.919 -235.18 211.719 -231.58 215.519 -228.18 C 204.519 -220.88 167.419 -209.68 152.719 -204.88 L 31.319 -166.18 C -10.681 -154.58 -50.281 -139.58 -93.881 -129.38 C -88.481 -136.68 -83.081 -145.18 -78.081 -152.78 C -50.181 -195.78 -18.681 -237.28 8.819 -280.38 C 35.119 -279.38 36.919 -283.98 55.819 -300.68 Z" style="stroke-width: 1;"/>
    <path fill="rgb(253,253,253)" d="M -258.88 327.219 C -251.18 331.299 -219.98 364.649 -211.48 373.129 C -197.28 386.909 -182.98 400.469 -168.48 413.809 C -131.78 447.129 -91.481 476.409 -51.781 505.949 C -43.781 511.929 -37.181 517.839 -31.281 525.969 C -39.981 541.039 -59.381 560.209 -71.681 572.609 C -82.881 583.629 -100.28 601.409 -113.88 608.689 C -118.98 611.469 -143.58 604.859 -149.88 602.499 C -156.88 590.539 -164.48 569.499 -169.68 556.109 L -198.08 483.809 L -236.58 385.879 C -243.58 368.109 -253.28 345.139 -258.88 327.219 Z" style="stroke-width: 1;"/>
    <path fill="rgb(253,253,253)" d="M -101.88 -56.281 C -101.18 -56.381 -99.88 -56.481 -99.38 -56.081 C -76.581 -38.081 -35.481 -5.381 -25.181 21.619 C -34.481 35.519 -68.981 58.919 -83.881 70.519 C -98.281 81.919 -112.48 93.619 -126.48 105.719 C -160.58 134.819 -193.18 165.819 -224.18 198.319 C -236.58 211.619 -251.68 228.819 -262.88 242.919 C -252.98 220.219 -243.68 196.219 -234.08 173.219 C -214.78 127.419 -195.28 81.819 -175.28 36.319 C -167.38 18.319 -144.78 -36.581 -133.68 -48.881 C -122.18 -50.581 -112.78 -51.681 -101.88 -56.281 Z" style="stroke-width: 1;"/>
    <path fill="rgb(253,253,253)" d="M 437.759 538.789 C 439.619 538.689 445.729 538.349 446.939 538.879 C 461.479 545.319 500.369 594.469 507.759 606.119 C 505.799 618.049 504.109 625.389 499.859 636.769 C 463.669 649.889 425.849 665.269 389.929 679.369 C 338.009 699.559 286.349 720.399 234.919 741.879 C 218.419 748.269 199.419 757.589 183.419 765.289 C 236.919 715.979 290.849 667.039 345.069 618.479 L 390.659 577.029 C 404.249 564.669 421.969 546.979 437.759 538.789 Z" style="stroke-width: 1;"/>
    <path fill="rgb(253,253,253)" d="M 133.119 -90.181 C 152.519 -90.881 171.219 -89.581 190.619 -89.381 L 316.809 -88.381 C 321.249 -78.881 329.429 -65.781 334.789 -56.081 C 348.179 -31.781 362.419 -7.881 375.099 16.819 C 341.139 7.719 321.859 -5.381 282.919 -12.981 C 241.019 -21.281 158.219 -19.981 115.219 -12.081 C 91.819 -7.881 59.119 2.219 33.719 7.719 C 46.519 -9.481 61.319 -22.381 76.819 -36.981 C 95.719 -54.581 114.419 -72.381 133.119 -90.181 Z" style="stroke-width: 1;"/>
    <path fill="rgb(253,253,253)" d="M 523.919 -46.381 C 535.709 -46.681 545.849 -45.081 557.539 -45.381 C 566.069 -24.381 576.769 -1.381 586.039 19.519 C 602.799 57.419 619.779 95.319 636.979 133.019 C 647.249 155.219 672.279 204.719 677.029 225.219 C 666.079 217.419 650.119 200.619 640.139 190.619 C 605.769 155.919 577.739 128.319 536.989 100.919 C 514.239 85.619 470.269 66.119 453.409 50.019 C 461.429 30.719 509.139 -27.581 523.919 -46.381 Z" style="stroke-width: 1;"/>
    <path fill="rgb(253,253,253)" d="M -4.081 551.389 C -3.581 551.499 -3.081 551.549 -2.581 551.739 C 9.219 556.599 99.119 735.329 108.619 758.029 C 88.819 753.239 61.819 738.749 43.019 729.239 C 16.919 717.809 -14.981 699.689 -41.181 686.909 C -55.481 679.929 -82.181 667.029 -94.681 659.469 C -96.381 650.939 -97.081 645.609 -97.781 636.919 C -88.381 618.099 -24.281 561.019 -4.081 551.389 Z" style="stroke-width: 1;"/>
    <path fill="rgb(253,253,253)" d="M 105.219 821.709 C 109.219 822.909 124.619 832.539 130.919 835.289 C 146.519 841.979 165.819 833.359 181.119 827.459 C 204.019 838.689 235.119 851.409 258.929 861.639 C 287.719 874.009 323.319 889.959 352.429 900.419 C 328.919 905.549 286.939 910.249 262.889 910.669 C 192.819 911.719 124.419 911.159 56.019 892.999 C 47.819 890.819 9.819 883.379 6.919 876.389 C 12.719 864.769 90.019 827.599 105.219 821.709 Z" style="stroke-width: 1;"/>
    <path fill="rgb(253,253,253)" d="M 782.959 555.609 C 783.439 555.569 784.589 555.859 785.139 555.969 C 787.359 571.779 719.939 667.029 704.289 684.479 C 678.559 713.159 650.989 762.659 617.829 711.139 C 609.029 697.019 598.869 681.229 592.079 666.189 C 597.749 642.329 600.729 634.289 623.429 624.289 C 676.199 601.049 729.019 575.979 782.959 555.609 Z" style="stroke-width: 1;"/>
    <path fill="rgb(253,253,253)" d="M 665.249 333.379 L 666.219 335.059 C 663.349 342.719 660.069 348.649 657.039 355.899 C 641.679 392.619 624.739 428.709 608.809 465.229 C 599.459 486.579 590.299 508.009 581.319 529.519 C 573.939 547.119 566.959 564.949 557.789 581.679 C 549.769 583.599 536.849 584.659 527.779 586.299 C 519.049 577.899 509.929 566.589 502.479 557.099 C 495.899 548.839 475.479 523.489 473.489 513.569 C 472.019 506.229 497.259 490.099 503.869 485.179 C 539.809 458.389 576.519 429.049 608.319 397.399 C 627.869 377.939 647.309 354.399 665.249 333.379 Z" style="stroke-width: 1;"/>
    <path fill="rgb(253,253,253)" d="M 570.069 685.269 C 571.549 684.549 570.739 684.779 572.669 685.139 C 587.459 711.319 608.179 739.339 611.929 769.499 C 596.289 798.929 508.279 844.419 477.019 859.889 C 465.719 865.189 457.309 869.169 445.179 872.279 C 449.719 856.579 467.299 822.799 475.039 806.959 C 494.819 766.459 515.969 726.269 535.509 685.619 C 547.029 685.769 558.559 685.659 570.069 685.269 Z" style="stroke-width: 1;"/>
    <path fill="rgb(253,253,253)" d="M -107.38 685.919 C -101.38 687.219 -96.181 688.789 -90.581 691.479 C -32.381 719.219 25.519 748.349 82.219 778.969 C 88.919 782.549 94.119 786.659 99.419 791.939 C 90.319 799.879 78.819 805.729 68.219 811.419 C 50.419 821.399 17.119 837.829 -1.481 844.119 C -14.081 838.119 -20.081 836.179 -33.281 832.399 C -46.281 819.989 -101.78 707.639 -107.38 685.919 Z" style="stroke-width: 1;"/>
    <path fill="rgb(253,253,253)" d="M 389.689 -274.38 C 391.359 -274.28 392.799 -274.18 394.419 -273.68 C 404.509 -270.58 421.329 -266.88 429.619 -260.28 C 444.599 -248.38 496.639 -150.48 509.389 -126.78 C 489.659 -135.58 471.079 -143.48 451.399 -152.78 C 419.839 -167.68 388.479 -182.88 357.339 -198.58 C 340.179 -207.38 320.139 -217.28 304.249 -227.88 C 318.829 -240.78 370.619 -267.98 389.689 -274.38 Z" style="stroke-width: 1;"/>
    <path fill="rgb(253,253,253)" d="M 197.319 -325.88 C 206.819 -326.58 224.719 -325.68 234.419 -325.28 C 277.949 -323.38 340.509 -319.48 380.799 -303.58 C 359.919 -287.38 324.469 -269.98 300.509 -257.28 C 292.329 -261.68 285.339 -264.98 276.889 -268.88 C 252.849 -278.68 243.949 -270.68 224.419 -256.78 C 183.319 -276.28 136.519 -293.58 97.219 -314.58 C 126.019 -320.68 168.219 -324.58 197.319 -325.88 Z" style="stroke-width: 1;"/>
    <path fill="rgb(253,253,253)" d="M 344.499 -91.481 L 422.929 -88.781 C 443.919 -88.281 465.449 -88.181 486.139 -85.981 C 507.239 -83.681 512.429 -74.281 500.379 -57.181 C 489.279 -41.481 477.389 -26.781 465.419 -11.881 C 453.129 2.919 439.239 22.719 421.999 30.319 C 405.869 23.119 389.869 -8.681 381.049 -24.581 L 344.499 -91.481 Z" style="stroke-width: 1;"/>
    <path fill="rgb(253,253,253)" d="M 453.299 -283.78 C 476.219 -281.98 529.999 -250.88 550.409 -238.28 C 589.519 -214.18 616.819 -199.68 586.529 -152.78 C 577.879 -140.38 578.149 -138.48 562.589 -140.08 C 553.199 -141.08 541.979 -141.48 532.509 -141.78 C 526.949 -147.38 503.869 -187.58 500.059 -195.58 C 491.739 -213.18 454.969 -266.98 453.299 -283.78 Z" style="stroke-width: 1;"/>
    <path fill="rgb(253,253,253)" d="M -170.28 702.789 C -163.68 702.459 -142.88 704.589 -134.58 705.039 C -120.48 718.739 -67.881 828.299 -61.581 849.379 C -71.581 846.569 -78.381 843.149 -87.481 838.539 C -117.58 822.809 -167.28 789.639 -193.38 766.409 C -203.18 757.679 -204.78 747.209 -204.38 734.609 C -195.48 723.299 -182.68 710.059 -170.28 702.789 Z" style="stroke-width: 1;"/>
    <path fill="rgb(253,253,253)" d="M -21.581 -286.28 L -19.281 -286.18 C -19.081 -279.68 -99.38 -164.78 -110.88 -151.58 C -114.98 -146.88 -141.98 -144.58 -151.38 -143.48 C -155.18 -146.78 -156.88 -148.98 -160.08 -152.88 C -165.18 -159.48 -169.98 -167.08 -172.88 -174.78 C -175.28 -181.18 -176.48 -188.78 -173.28 -195.08 C -161.48 -218.88 -50.081 -275.68 -21.581 -286.28 Z" style="stroke-width: 1;"/>
    <path fill="rgb(253,253,253)" d="M -352.08 571.239 C -346.18 573.299 -309.88 594.669 -301.58 599.159 C -283.98 608.629 -266.18 617.809 -248.28 626.689 C -230.68 635.539 -211.58 644.399 -196.18 656.679 C -180.38 669.229 -193.68 685.089 -203.08 695.909 C -204.78 697.819 -206.58 699.689 -208.48 701.509 C -222.18 714.839 -235.88 711.899 -254.38 711.579 C -277.58 683.779 -340.68 605.219 -352.08 571.239 Z" style="stroke-width: 1;"/>
    <path fill="rgb(253,253,253)" d="M 643.509 -155.78 C 648.839 -156.28 661.229 -157.18 665.529 -154.88 C 694.459 -139.08 758.789 -56.381 770.049 -28.681 C 757.449 -35.781 747.629 -43.081 733.959 -49.781 C 706.259 -63.281 675.139 -73.681 646.299 -84.781 C 630.839 -91.281 611.089 -95.881 597.039 -104.78 C 585.489 -112.08 605.379 -136.98 610.269 -143.18 C 618.789 -153.98 631.109 -154.78 643.509 -155.78 Z" style="stroke-width: 1;"/>
    <path fill="rgb(253,253,253)" d="M 92.619 -89.881 L 94.719 -89.881 L 95.319 -88.781 C 73.519 -67.181 23.819 -20.281 -0.581 -6.181 C -17.181 -17.381 -25.781 -24.981 -40.981 -38.681 C -57.481 -53.981 -66.481 -61.881 -79.781 -79.781 C -40.181 -85.681 -0.081 -87.681 39.919 -88.881 C 57.419 -89.481 75.219 -88.781 92.619 -89.881 Z" style="stroke-width: 1;"/>
    <path fill="rgb(253,253,253)" d="M -222.78 -158.38 C -202.08 -156.98 -182.58 -144.18 -171.98 -125.98 C -168.28 -119.78 -171.98 -112.68 -174.48 -106.48 C -184.68 -100.68 -212.08 -90.681 -224.18 -85.981 C -248.18 -76.581 -271.88 -66.381 -295.18 -55.381 C -307.58 -49.081 -320.48 -43.481 -333.18 -37.881 C -308.68 -69.681 -259.28 -144.38 -222.78 -158.38 Z" style="stroke-width: 1;"/>
    <path fill="rgb(253,253,253)" d="M 211.119 -196.18 C 211.919 -195.98 211.319 -196.18 212.319 -195.08 C 210.519 -190.78 135.219 -125.58 126.119 -118.88 C 105.919 -116.48 83.919 -116.88 63.519 -115.68 C 24.819 -113.48 -13.681 -111.98 -52.381 -111.28 L -53.681 -111.78 C -50.581 -115.78 182.719 -187.78 211.119 -196.18 Z" style="stroke-width: 1;"/>
    <path fill="rgb(253,253,253)" d="M 295.839 -193.38 C 315.949 -194.08 382.299 -156.08 404.619 -147.68 C 411.849 -144.88 473.709 -114.88 475.559 -112.18 C 426.809 -114.08 379.599 -117.28 330.249 -118.48 C 320.529 -140.08 304.399 -160.38 296.059 -182.78 C 294.509 -186.98 294.239 -189.18 295.839 -193.38 Z" style="stroke-width: 1;"/>
    <path fill="rgb(253,253,253)" d="M 232.419 -177.38 C 243.279 -177.38 260.579 -174.48 271.239 -172.68 C 279.999 -154.68 291.829 -135.98 301.119 -117.38 L 237.119 -117.38 C 212.019 -117.28 191.619 -116.48 166.819 -119.68 C 182.619 -136.68 213.519 -161.28 232.419 -177.38 Z" style="stroke-width: 1;"/>
  </g>
</svg>