<svg version="1.1" xmlns="http://www.w3.org/2000/svg" style="display: block;" viewBox="0 0 1600 1600" width="400" height="400" preserveAspectRatio="none">
<path transform="translate(0,0)" fill="rgb(253,253,253)" d="M 0 0 L 126.977 0 L 1472.96 0 L 1600 0 L 1600 126.417 L 1600 1472.93 L 1600 1600 L 1473.04 1600 L 127.018 1600 L 0 1600 L 0 1473.03 L 0 127.019 L 0 0 z"/>
<path transform="translate(0,0)" fill="rgb(0,0,0)" d="M 1600 1472.93 L 1600 1600 L 1473.04 1600 C 1480.35 1596 1489.22 1594.46 1496.96 1591.52 C 1536.79 1576.36 1569.15 1546.98 1586.32 1507.67 C 1591.19 1496.53 1594.79 1482.89 1600 1472.93 z"/>
<path transform="translate(0,0)" fill="rgb(0,0,0)" d="M 0 1473.03 C 5.93828 1483.25 9.59485 1500.71 15.7012 1512.76 C 33.4323 1547.75 59.4657 1571.97 94.8745 1588.49 C 104.5 1593.09 117.547 1594.95 127.018 1600 L 0 1600 L 0 1473.03 z"/>
<path transform="translate(0,0)" fill="rgb(0,0,0)" d="M 0 0 L 126.977 0 C 118.037 4.91882 105.107 6.69296 95.7138 10.9544 C 60.03 27.1423 32.8799 51.6011 16.1549 87.3427 C 11.5112 96.5072 2.51812 122.964 0 127.019 L 0 0 z"/>
<path transform="translate(0,0)" fill="rgb(0,0,0)" d="M 1472.96 0 L 1600 0 L 1600 126.417 C 1596.3 121.412 1586.81 92.9676 1582.11 83.6817 C 1565.47 50.7123 1537.54 24.8164 1503.41 10.7106 C 1493.96 6.71882 1481.6 4.78426 1472.96 0 z"/>
<path transform="translate(0,0)" fill="rgb(0,0,0)" d="M 591.997 154.155 C 620.567 152.329 620.626 154.585 640.16 174.687 C 758.51 149.557 853.575 150.856 970.594 178.535 C 984.69 172.328 992.856 163.683 1010.91 165.611 C 1032.39 167.904 1033.51 190.818 1050.38 200.258 C 1058.4 204.744 1067.61 207.28 1075.99 211.215 C 1091.74 218.602 1107.97 226.567 1122.99 235.342 C 1137.16 243.624 1151.95 252.563 1165.71 261.518 C 1175.71 268.027 1185.44 277.564 1196.38 283.1 C 1209.98 289.982 1228.14 286.043 1240.22 295.444 C 1249.94 303.012 1253.5 320.294 1262.47 329.229 C 1270.55 337.268 1279.35 344.908 1287.55 352.899 C 1302.91 367.771 1317.2 383.707 1330.32 400.59 C 1460.48 564.027 1500.74 781.527 1437.72 980.725 C 1419.87 1035.58 1384.1 1099.17 1354.2 1148.64 C 1330.04 1182.54 1303.7 1220.28 1273.91 1249.53 C 1249.78 1273.23 1269.38 1284.05 1248.12 1303.72 C 1237.65 1313.41 1214.38 1307.37 1204.37 1313.64 C 1176.73 1330.94 1151.5 1351 1122.94 1366.91 C 1085.69 1389.43 1044.62 1401.86 1010.46 1428.55 C 1001.64 1435.34 999.302 1436.52 988.557 1439.59 C 963.424 1432.15 950.926 1435.81 925.464 1440.08 C 865.349 1450.15 802.174 1445.46 741.364 1445.54 C 710.078 1445.58 677.955 1438.72 647.5 1432.37 C 625.367 1427.76 602.882 1419.46 580.335 1418.12 C 573.43 1417.82 555.897 1424.33 547.871 1426.18 C 526.965 1417.81 525.322 1409.35 514.192 1394.09 C 506.252 1383.21 470.11 1364.52 456.321 1355.88 C 438.992 1344.96 421.969 1333.55 405.273 1321.69 C 392.719 1312.6 374.625 1297.92 361.402 1291.49 C 347.428 1284.69 330.21 1294.18 317.399 1275.62 C 307.22 1260.87 314.239 1247.38 305.063 1233.02 C 299.708 1224.63 290.692 1216.01 283.985 1208.24 C 273.99 1196.77 264.611 1184.77 255.886 1172.3 C 173.845 1055.86 131.208 916.223 134.209 773.814 C 134.781 741.063 135.193 719.469 140.85 686.83 C 158.77 581.848 203.907 483.4 271.758 401.311 C 284.651 386.015 298.114 371.207 312.118 356.92 C 318.924 349.851 326.516 342.294 333.107 335.06 C 344.742 322.287 337.35 302.871 353.096 291.981 C 367.144 282.265 385.481 291.281 399.474 284.936 C 409.353 280.456 422.796 271.157 432.016 265.106 C 443.843 257.219 455.957 249.77 468.332 242.774 C 482.816 234.525 497.54 226.704 512.484 219.319 C 528.518 211.533 548.616 202.874 562.898 192.787 C 572.026 175.732 570.857 162.341 591.997 154.155 z"/>
<path transform="translate(0,0)" fill="rgb(253,253,253)" d="M 772.122 514.431 C 813.557 507.807 951.526 536.59 972.056 574.862 C 961.153 602.109 914.108 642.427 910.229 663.361 C 909.732 666.04 909.991 669.737 911.633 672.006 C 912.653 673.416 913.408 673.923 915.152 674.079 C 928.883 675.31 966.169 625.314 978.685 615.063 C 983.509 611.112 989.788 607.092 996.312 608.008 C 999.146 608.406 1001.01 609.914 1002.66 612.169 C 1011.32 624.002 1040.8 738.09 1040.85 756.224 C 1040.89 767.191 1034.42 776.17 1032.58 786.854 L 1032.35 788.295 C 1035.4 798.138 1043.27 805.638 1045.14 815.994 C 1049.85 842.003 1030.37 939.792 1022.89 969.617 C 1021.89 973.627 1020.85 977.771 1017.1 980.001 C 1003.02 978.938 942.761 914.92 921.463 900.392 C 895.554 912.455 920.241 926.108 931.905 939.514 C 950.866 961.307 982.374 984.579 996.188 1009.97 C 976.498 1034.09 887.842 1052.75 857.195 1056.73 C 833.011 1059.88 808.635 1061.31 784.25 1061.01 C 768.468 1061.21 736.844 1057.9 722.666 1056.73 C 703.676 1055.17 626.376 1036.98 618.3 1025.56 C 606.345 1008.65 685.988 934.349 688.748 913.824 C 689.217 912.103 687.897 910.407 686.848 909.06 C 681.592 902.306 671.145 905.232 665.89 910.772 C 639.112 939.006 619.435 971.739 591.348 999.177 C 575.021 968.299 545.422 849.305 545.956 813.327 C 552.34 803.019 555.488 798.744 558.687 786.903 C 556.239 778.174 551.979 771.291 548.276 763.133 C 538.892 742.463 574.249 610.303 583.975 584.205 C 585.562 579.947 588.104 571.606 592.743 569.871 C 604.682 565.408 655.614 654.961 672.454 661.982 C 675.367 663.197 678.851 663.799 681.819 662.426 C 684.249 661.302 685.852 659.244 686.651 656.721 C 687.878 652.852 687.09 648.598 685.328 645.03 C 679.58 633.384 669.825 622.542 662.092 612.136 C 647.493 592.49 632.664 572.393 620.847 550.943 C 645.584 529.694 739.352 516.739 772.122 514.431 z"/>
<path transform="translate(0,0)" fill="rgb(0,0,0)" d="M 779.424 678.41 C 796.019 677.034 823.088 677.491 838.563 681.598 C 883.729 693.586 923.652 716.91 955.664 750.999 C 966.426 762.459 974.545 769.708 983.126 783.412 C 977.712 792.603 965.089 805.765 957.576 813.79 C 923.798 849.872 871.383 888.263 819.871 889.055 C 788.247 889.242 757.451 890.626 727.318 879.13 C 692.123 865.704 629.35 819.108 614.485 785.176 C 617.676 777.083 622.8 770.13 628.528 763.624 C 668.528 718.191 717.58 682.946 779.424 678.41 z"/>
<path transform="translate(0,0)" fill="rgb(253,253,253)" d="M 762.524 734.179 C 771.797 734.105 780.934 738.713 785.313 747.111 C 788.057 752.416 788.515 758.612 786.579 764.262 C 783.774 772.511 778.34 776.654 770.938 780.184 C 743.803 780.091 733.79 741.952 762.524 734.179 z"/>
<path transform="translate(0,0)" fill="rgb(253,253,253)" d="M 559.067 568.845 C 560.243 569.263 559.698 569.034 560.613 570.477 C 559.779 576.65 554.525 593.469 552.508 600.362 C 547.991 615.575 543.858 630.899 540.114 646.32 C 535.24 667.133 530.882 688.064 527.042 709.092 C 525.058 719.503 521.468 741.74 517.588 750.778 C 502.186 764.047 488.134 763.677 488.159 789.591 C 488.18 811.144 516.124 815.5 520.239 830.031 C 523.489 847.698 530.139 872.934 532.86 889.771 C 535.279 904.74 561.276 990.829 557.779 998.283 C 545.407 1000.6 479.687 946.083 465.919 934.753 C 428.035 902.773 392.155 868.491 358.483 832.102 C 324.982 795.481 316.894 792.617 353.115 752.574 C 400.815 699.839 450.244 649.42 506.788 605.978 C 523.766 592.935 540.349 579.395 559.067 568.845 z"/>
<path transform="translate(0,0)" fill="rgb(253,253,253)" d="M 1030.36 593.26 C 1037.8 594.595 1054.79 602.819 1061.99 606.538 C 1114.53 634.293 1162.15 670.493 1202.94 713.692 C 1215.39 726.676 1256.79 767.484 1255.67 784.029 C 1253.83 811.126 1160.24 905.333 1138.53 924.207 C 1116.52 943.328 1077.36 975.826 1051.17 986.133 C 1049.14 967.223 1059.69 917.863 1062.65 896.382 C 1065.76 873.908 1069.95 840.165 1075.06 818.701 C 1094.87 816.111 1111.47 796.757 1103.77 776.271 C 1097.47 759.501 1082.96 755.421 1067.96 748.736 C 1065.64 742.416 1064.11 736.188 1062.67 729.614 C 1053.62 688.29 1039.6 648.188 1030.69 606.877 C 1029.75 602.527 1030.06 597.682 1030.36 593.26 z"/>
<path transform="translate(0,0)" fill="rgb(253,253,253)" d="M 1085.96 1175.22 C 1088.01 1175.01 1089.92 1175.15 1091.98 1175.2 C 1097.99 1178.81 1093.27 1190.91 1090.89 1196.19 C 1064.2 1255.35 1033.17 1312.51 1004.24 1370.6 C 983.957 1376 974.339 1378.41 959.049 1393.26 C 950.802 1388.76 925.637 1379.42 915.992 1375.53 C 889.122 1364.71 862.356 1353.63 835.698 1342.3 C 822.449 1336.45 780.587 1319.66 773.292 1309.95 C 771.084 1295.8 847.509 1266.92 860.775 1261.39 C 896.476 1246.6 932.318 1232.15 968.297 1218.04 C 990.988 1209.11 1013.74 1200.33 1036.55 1191.71 C 1051.66 1186.05 1070.55 1178.72 1085.96 1175.22 z"/>
<path transform="translate(0,0)" fill="rgb(253,253,253)" d="M 971.013 1053.15 L 971.587 1053.65 L 971.239 1055.15 C 958.244 1069.2 937.838 1086.91 923.063 1100.34 L 830.169 1183.72 C 815.818 1196.63 801.556 1209.63 787.385 1222.74 C 777.214 1232.09 761.713 1247.6 750.399 1253.86 C 737.838 1248.51 729.352 1248.98 715.989 1248.87 C 704.758 1236.82 681.229 1189.37 672.065 1171.89 L 640.324 1110.32 C 632.037 1094.15 621.617 1074.32 615.375 1057.36 C 636.21 1060.4 671.812 1072.63 696.155 1077.49 C 791.204 1096.45 880.363 1086.41 971.013 1053.15 z"/>
<path transform="translate(0,0)" fill="rgb(253,253,253)" d="M 1293.71 823.853 C 1297.9 823.909 1302.34 824.683 1305.68 827.398 C 1318.2 837.607 1364.08 949.802 1371.18 971.637 C 1373.92 980.083 1375.66 988.132 1376.33 996.981 C 1367.93 1012.68 1366.89 1019.63 1365.17 1037.01 C 1355.81 1039.88 1329.86 1052.44 1319.45 1057.19 L 1229.29 1098.34 C 1211.08 1106.43 1198.11 1112.21 1179.23 1118.09 C 1164.18 1108.19 1166.05 1102.68 1171.84 1087.72 C 1179.63 1067.6 1188.04 1047.87 1196.57 1028.05 C 1213.71 988.386 1231.2 948.881 1249.05 909.537 C 1256.6 892.848 1281.94 832.173 1293.71 823.853 z"/>
<path transform="translate(0,0)" fill="rgb(253,253,253)" d="M 405.469 434.074 C 422.393 433.288 424.441 440.578 418.968 454.815 C 384.923 543.367 344.159 629.528 307.969 717.286 C 303.719 727.592 296.889 743.554 289.753 751.755 C 281.511 739.912 277.32 728.532 271.858 715.275 C 260.283 685.989 225.84 597.392 224.022 568.741 C 228.814 559.428 238.818 551.978 237.584 540.461 C 236.87 533.799 234.2 526.578 232.193 520.161 C 253.419 492.242 369.779 443.848 405.469 434.074 z"/>
<path transform="translate(0,0)" fill="rgb(253,253,253)" d="M 1176.41 436.948 C 1178.32 436.897 1181.05 437.015 1182.84 437.442 C 1221.93 446.782 1333.49 488.734 1355.67 519.557 C 1354.77 535.519 1351.08 541.976 1359.24 557.425 C 1360.89 561.019 1362.84 567.927 1361.6 571.708 C 1347.87 613.574 1331.05 657.889 1314.04 698.401 C 1307.89 713.774 1303.07 725.826 1294.91 740.139 C 1266.01 684.988 1236.63 618.743 1211.06 561.746 L 1184.38 501.602 C 1178.27 487.661 1166.67 464.949 1166.18 449.415 C 1166.03 444.595 1172.7 439.839 1176.41 436.948 z"/>
<path transform="translate(0,0)" fill="rgb(253,253,253)" d="M 289.614 829.406 C 295.233 831.992 308.272 866.329 311.377 873.958 C 323.213 903.312 334.797 932.766 346.128 962.319 L 382.892 1056.87 C 388.148 1070.38 409.738 1121.2 407.52 1132.96 C 405.712 1136.23 402.899 1137.16 399.468 1138.98 C 384.977 1133.26 372.116 1126.98 358.15 1120.09 C 312.739 1097.44 275.889 1079.08 233.491 1050.69 C 234.806 1040.27 236.228 1032.26 235.961 1021.66 C 231.285 1014.68 225.334 1010.69 220.477 1002.36 C 225.773 981.424 279.062 844.604 289.614 829.406 z"/>
<path transform="translate(0,0)" fill="rgb(253,253,253)" d="M 1396.31 569.609 C 1403.8 575.867 1412.39 603.244 1415.39 613.376 C 1437.87 690.066 1444.74 777.372 1437.5 856.991 C 1434.75 887.185 1421.61 959.737 1407.79 985.664 C 1394.5 962.425 1375.6 914.081 1363.98 887.615 C 1352.1 861.436 1337.05 830.07 1328.25 803.282 C 1356.12 799.912 1379.95 802.194 1407.4 800.284 C 1412.31 799.942 1426.93 798.207 1428.97 794.17 C 1430.09 791.947 1430.77 788.527 1430.05 786.738 C 1420.88 763.869 1348.69 783.054 1329.66 768.363 C 1325.34 765.029 1322.89 762.047 1322.14 757.348 C 1321.53 753.792 1322.34 749.664 1323.57 746.257 C 1342.74 693.026 1364.14 640.328 1385.7 588.008 C 1388.44 581.367 1392 575.313 1396.31 569.609 z"/>
<path transform="translate(0,0)" fill="rgb(253,253,253)" d="M 196.085 583.568 C 198.205 585.7 201.926 595.545 203.061 598.779 C 220.194 647.6 236.795 696.381 256.536 744.262 C 259.371 751.14 262.338 759.026 263.931 766.295 C 262.787 767.747 261.611 769.206 260.303 770.515 C 249.671 781.154 187.275 778.001 170.779 777.98 C 170.894 786.52 171.033 790.482 172.433 798.913 C 193.918 800.048 215.631 799.999 237.053 801.245 C 249.702 801.981 256.142 803.851 264.23 813.247 C 261.024 830.877 239.794 880.995 231.875 900.729 C 220.01 930.096 207.129 961.7 193.5 990.192 C 191.124 985.42 188.964 980.243 187.33 975.162 C 150.951 862.006 149.754 739.107 181.781 624.794 C 185.845 610.289 189.495 597.067 196.085 583.568 z"/>
<path transform="translate(0,0)" fill="rgb(253,253,253)" d="M 639.221 209.698 C 659.743 212.366 763.051 260.498 785.892 272.778 C 790.33 275.164 795.088 278.761 798.906 282.21 C 787.885 289.503 750.82 300.682 736.035 305.519 L 614.732 344.209 C 572.723 355.731 533.051 370.806 489.511 380.949 C 494.875 373.676 500.329 365.188 505.274 357.577 C 533.193 314.612 564.637 273.039 592.172 229.924 C 618.522 230.981 620.244 226.343 639.221 209.698 z"/>
<path transform="translate(0,0)" fill="rgb(253,253,253)" d="M 324.463 837.534 C 332.207 841.658 363.387 875.004 371.931 883.482 C 386.05 897.264 400.378 910.828 414.912 924.169 C 451.564 957.489 491.892 986.765 531.563 1016.31 C 539.588 1022.29 546.192 1028.2 552.071 1036.33 C 543.387 1051.4 523.96 1070.57 511.656 1082.97 C 500.514 1093.99 483.108 1111.77 469.532 1119.05 C 464.345 1121.83 439.786 1115.22 433.453 1112.86 C 426.472 1100.9 418.904 1079.86 413.649 1066.47 L 385.316 994.168 L 346.753 896.238 C 339.751 878.463 330.059 855.495 324.463 837.534 z"/>
<path transform="translate(0,0)" fill="rgb(253,253,253)" d="M 481.521 454.048 C 482.171 454.001 483.443 453.833 483.956 454.237 C 506.813 472.262 547.911 504.956 558.156 531.944 C 548.91 545.835 514.405 569.245 499.483 580.924 C 485.04 592.313 470.852 604.022 456.93 616.042 C 422.774 645.221 390.157 676.155 359.213 708.72 C 346.777 721.942 331.635 739.163 320.491 753.304 C 330.34 730.549 339.653 706.531 349.297 683.532 C 368.542 637.78 388.132 592.175 408.067 546.721 C 415.962 528.675 438.559 473.785 449.636 461.448 C 461.214 459.762 470.622 458.689 481.521 454.048 z"/>
<path transform="translate(0,0)" fill="rgb(253,253,253)" d="M 1021.12 1049.15 C 1022.98 1049.05 1029.09 1048.71 1030.3 1049.24 C 1044.84 1055.68 1083.73 1104.83 1091.12 1116.48 C 1089.16 1128.41 1087.47 1135.75 1083.22 1147.13 C 1047.03 1160.25 1009.21 1175.63 973.292 1189.73 C 921.375 1209.92 869.709 1230.76 818.308 1252.24 C 801.765 1258.63 782.785 1267.95 766.783 1275.65 C 820.325 1226.34 874.21 1177.4 928.435 1128.84 L 974.019 1087.39 C 987.609 1075.03 1005.33 1057.34 1021.12 1049.15 z"/>
<path transform="translate(0,0)" fill="rgb(253,253,253)" d="M 716.476 420.144 C 735.928 419.5 754.613 420.763 774.001 420.975 L 900.174 421.975 C 904.615 431.448 912.797 444.572 918.156 454.289 C 931.545 478.569 945.779 502.517 958.463 527.191 C 924.503 518.06 905.226 504.929 866.283 497.344 C 824.392 489.027 741.578 490.408 698.609 498.227 C 675.231 502.481 642.46 512.583 617.064 518.055 C 629.842 500.91 644.712 487.978 660.219 473.357 C 679.076 455.73 697.829 437.992 716.476 420.144 z"/>
<path transform="translate(0,0)" fill="rgb(253,253,253)" d="M 1107.28 463.997 C 1119.07 463.718 1129.21 465.305 1140.9 464.957 C 1149.43 485.978 1160.13 508.954 1169.4 529.916 C 1186.16 567.823 1203.14 605.632 1220.34 643.343 C 1230.61 665.597 1255.64 715.052 1260.39 735.537 C 1249.44 727.792 1233.48 710.97 1223.5 700.934 C 1189.13 666.274 1161.1 638.659 1120.35 611.245 C 1097.6 595.935 1053.63 576.428 1036.77 560.389 C 1044.79 541.084 1092.5 482.784 1107.28 463.997 z"/>
<path transform="translate(0,0)" fill="rgb(253,253,253)" d="M 579.284 1061.75 C 579.771 1061.86 580.282 1061.91 580.745 1062.1 C 592.55 1066.96 682.487 1245.69 691.983 1268.39 C 672.136 1263.6 645.147 1249.11 626.351 1239.6 C 600.241 1228.17 568.42 1210.05 542.214 1197.27 C 527.897 1190.29 501.201 1177.39 488.71 1169.83 C 486.964 1161.3 486.263 1155.97 485.633 1147.28 C 494.99 1128.46 559.111 1071.38 579.284 1061.75 z"/>
<path transform="translate(0,0)" fill="rgb(253,253,253)" d="M 688.604 1332.07 C 692.554 1333.27 707.965 1342.9 714.332 1345.65 C 729.851 1352.34 749.212 1343.72 764.498 1337.82 C 787.375 1349.05 818.492 1361.77 842.293 1372 C 871.08 1384.37 906.682 1400.32 935.79 1410.78 C 912.279 1415.91 870.3 1420.61 846.25 1421.03 C 776.223 1422.08 707.745 1421.52 639.428 1403.36 C 631.219 1401.18 593.183 1393.74 590.313 1386.75 C 596.122 1375.13 673.394 1337.96 688.604 1332.07 z"/>
<path transform="translate(0,0)" fill="rgb(253,253,253)" d="M 1366.33 1065.97 C 1366.81 1065.93 1367.96 1066.22 1368.51 1066.33 C 1370.73 1082.14 1303.3 1177.39 1287.65 1194.84 C 1261.92 1223.52 1234.35 1273.02 1201.19 1221.5 C 1192.39 1207.38 1182.23 1191.59 1175.44 1176.55 C 1181.11 1152.69 1184.09 1144.65 1206.79 1134.65 C 1259.56 1111.41 1312.38 1086.34 1366.33 1065.97 z"/>
<path transform="translate(0,0)" fill="rgb(253,253,253)" d="M 1248.61 843.732 L 1249.58 845.415 C 1246.71 853.072 1243.43 859.002 1240.4 866.257 C 1225.04 902.978 1208.1 939.067 1192.17 975.59 C 1182.82 996.938 1173.66 1018.37 1164.68 1039.88 C 1157.3 1057.48 1150.32 1075.31 1141.15 1092.04 C 1133.13 1093.96 1120.21 1095.02 1111.14 1096.66 C 1102.41 1088.26 1093.29 1076.95 1085.84 1067.46 C 1079.26 1059.2 1058.84 1033.85 1056.85 1023.93 C 1055.38 1016.59 1080.62 1000.46 1087.23 995.533 C 1123.17 968.75 1159.88 939.407 1191.68 907.752 C 1211.23 888.292 1230.67 864.752 1248.61 843.732 z"/>
<path transform="translate(0,0)" fill="rgb(253,253,253)" d="M 1153.43 1195.63 C 1154.91 1194.91 1154.1 1195.14 1156.03 1195.5 C 1170.82 1221.68 1191.54 1249.7 1195.29 1279.86 C 1179.65 1309.29 1091.64 1354.78 1060.38 1370.25 C 1049.08 1375.55 1040.67 1379.53 1028.54 1382.64 C 1033.08 1366.94 1050.66 1333.16 1058.4 1317.32 C 1078.18 1276.82 1099.33 1236.63 1118.87 1195.98 C 1130.39 1196.13 1141.92 1196.02 1153.43 1195.63 z"/>
<path transform="translate(0,0)" fill="rgb(253,253,253)" d="M 475.941 1196.28 C 481.985 1197.58 487.202 1199.15 492.832 1201.84 C 551.001 1229.58 608.913 1258.71 665.617 1289.33 C 672.252 1292.91 677.491 1297.02 682.785 1302.3 C 673.66 1310.24 662.189 1316.09 651.536 1321.78 C 633.754 1331.76 600.518 1348.19 581.928 1354.48 C 569.296 1348.48 563.326 1346.54 550.126 1342.76 C 537.099 1330.35 481.542 1218 475.941 1196.28 z"/>
<path transform="translate(0,0)" fill="rgb(253,253,253)" d="M 973.051 235.993 C 974.726 236.074 976.164 236.207 977.78 236.701 C 987.876 239.784 1004.69 243.512 1012.98 250.088 C 1027.96 261.97 1080 359.882 1092.75 383.605 C 1073.02 374.763 1054.44 366.856 1034.76 357.552 C 1003.2 342.702 971.846 327.428 940.7 311.736 C 923.546 302.968 903.5 293.088 887.617 282.449 C 902.19 269.596 953.986 242.362 973.051 235.993 z"/>
<path transform="translate(0,0)" fill="rgb(253,253,253)" d="M 780.649 184.428 C 790.136 183.778 808.036 184.696 817.793 185.116 C 861.309 186.988 923.874 190.834 964.167 206.731 C 943.282 222.957 907.833 240.366 883.876 253.119 C 875.692 248.655 868.703 245.379 860.252 241.509 C 836.214 231.713 827.308 239.667 807.815 253.537 C 766.634 234.095 719.912 216.763 680.537 195.797 C 709.353 189.682 751.626 185.791 780.649 184.428 z"/>
<path transform="translate(0,0)" fill="rgb(253,253,253)" d="M 927.861 418.862 L 1006.29 421.549 C 1027.28 422.071 1048.81 422.183 1069.5 424.422 C 1090.6 426.705 1095.79 436.036 1083.74 453.123 C 1072.64 468.883 1060.75 483.547 1048.78 498.504 C 1036.49 513.251 1022.6 533.12 1005.36 540.695 C 989.231 533.446 973.23 501.654 964.41 485.804 L 927.861 418.862 z"/>
<path transform="translate(0,0)" fill="rgb(253,253,253)" d="M 1036.66 226.587 C 1059.58 228.369 1113.36 259.432 1133.77 272.029 C 1172.88 296.161 1200.18 310.672 1169.89 357.549 C 1161.24 369.936 1161.51 371.86 1145.95 370.269 C 1136.56 369.308 1125.34 368.892 1115.87 368.586 C 1110.31 363.019 1087.23 322.764 1083.42 314.727 C 1075.1 297.14 1038.33 243.41 1036.66 226.587 z"/>
<path transform="translate(0,0)" fill="rgb(253,253,253)" d="M 413.111 1213.15 C 419.725 1212.82 440.469 1214.95 448.773 1215.4 C 462.933 1229.1 515.475 1338.66 521.813 1359.74 C 511.785 1356.93 505.019 1353.51 495.887 1348.9 C 465.738 1333.17 416.084 1300 390.005 1276.77 C 380.2 1268.04 378.56 1257.57 378.999 1244.97 C 387.844 1233.66 400.712 1220.42 413.111 1213.15 z"/>
<path transform="translate(0,0)" fill="rgb(253,253,253)" d="M 561.811 224.057 L 564.036 224.17 C 564.266 230.627 483.941 345.594 472.46 358.764 C 468.381 363.442 441.374 365.773 432.026 366.901 C 428.155 363.528 426.488 361.374 423.239 357.424 C 418.218 350.91 413.43 343.276 410.5 335.565 C 408.086 329.211 406.882 321.57 410.035 315.247 C 421.903 291.44 533.302 234.704 561.811 224.057 z"/>
<path transform="translate(0,0)" fill="rgb(253,253,253)" d="M 231.247 1081.6 C 237.171 1083.66 273.494 1105.03 281.798 1109.52 C 299.416 1118.99 317.189 1128.17 335.11 1137.05 C 352.704 1145.9 371.794 1154.76 387.208 1167.04 C 402.949 1179.59 389.719 1195.45 380.332 1206.27 C 378.555 1208.18 376.735 1210.05 374.872 1211.87 C 361.197 1225.2 347.519 1222.26 328.973 1221.94 C 305.733 1194.14 242.666 1115.58 231.247 1081.6 z"/>
<path transform="translate(0,0)" fill="rgb(253,253,253)" d="M 1226.87 354.573 C 1232.2 354.065 1244.59 353.139 1248.89 355.487 C 1277.82 371.31 1342.15 454.015 1353.41 481.652 C 1340.81 474.579 1330.99 467.276 1317.32 460.559 C 1289.62 447.068 1258.5 436.709 1229.66 425.578 C 1214.2 419.121 1194.45 414.485 1180.4 405.599 C 1168.85 398.298 1188.74 373.333 1193.63 367.148 C 1202.15 356.366 1214.47 355.577 1226.87 354.573 z"/>
<path transform="translate(0,0)" fill="rgb(253,253,253)" d="M 675.942 420.452 L 678.116 420.456 L 678.635 421.616 C 656.932 443.152 607.207 490.095 582.814 504.165 C 566.145 492.958 557.617 485.329 542.359 471.648 C 525.834 456.38 516.928 448.454 503.595 430.569 C 543.198 424.679 583.326 422.705 623.318 421.427 C 640.784 420.868 658.595 421.543 675.942 420.452 z"/>
<path transform="translate(0,0)" fill="rgb(253,253,253)" d="M 360.583 352 C 381.265 353.323 400.752 366.212 411.405 384.34 C 415.081 390.596 411.369 397.7 408.905 403.912 C 398.728 409.71 371.277 419.624 359.227 424.388 C 335.205 433.799 311.507 444.017 288.173 455.025 C 275.739 461.226 262.838 466.829 250.136 472.493 C 274.659 440.633 324.1 365.923 360.583 352 z"/>
<path transform="translate(0,0)" fill="rgb(253,253,253)" d="M 794.437 314.205 C 795.253 314.349 794.722 314.177 795.706 315.297 C 793.851 319.559 718.606 384.764 709.453 391.479 C 689.322 393.903 667.253 393.447 646.839 394.64 C 608.167 396.898 569.693 398.401 530.944 399.116 L 529.692 398.571 C 532.795 394.539 766.058 322.576 794.437 314.205 z"/>
<path transform="translate(0,0)" fill="rgb(253,253,253)" d="M 879.199 317.015 C 899.312 316.244 965.66 354.236 987.984 362.702 C 995.218 365.445 1057.07 395.519 1058.92 398.214 C 1010.17 396.308 962.968 393.055 913.609 391.852 C 903.891 370.306 887.765 349.94 879.425 327.578 C 877.872 323.413 877.599 321.172 879.199 317.015 z"/>
<path transform="translate(0,0)" fill="rgb(253,253,253)" d="M 815.764 332.992 C 826.643 333.003 843.944 335.852 854.603 337.694 C 863.361 355.68 875.195 374.323 884.488 393.015 L 820.5 393.019 C 795.411 393.079 775.017 393.868 750.189 390.69 C 765.981 373.63 796.925 349.046 815.764 332.992 z"/>
</svg>